<svg width="575" height="584" viewBox="0 0 375 384" fill="none" xmlns="http://www.w3.org/2000/svg">
<path d="M0 0H375V384H0V0Z" fill="url(#paint0_linear)"/>
<mask id="mask0" mask-type="alpha" maskUnits="userSpaceOnUse" x="0" y="0" width="375" height="384">
<path d="M0 0H375V384H0V0Z" fill="url(#paint1_linear)"/>
</mask>
<g mask="url(#mask0)">
<ellipse cx="-23.5" cy="233.127" rx="33.5" ry="33.5829" fill="#D0EDFF"/>
<ellipse cx="385" cy="122.354" rx="40" ry="40.099" fill="#D0EDFF"/>
<ellipse cx="214" cy="172.478" rx="5" ry="5.01238" fill="#D0EDFF"/>
<ellipse cx="27" cy="136.389" rx="11" ry="11.0272" fill="#D0EDFF"/>
<ellipse cx="330.5" cy="268.214" rx="12.5" ry="12.5309" fill="#D0EDFF"/>
<path d="M112.398 214.105C114.326 214.105 115.888 212.237 115.888 209.933C115.888 207.628 114.326 205.76 112.398 205.76C110.47 205.76 108.907 207.628 108.907 209.933C108.907 212.237 110.47 214.105 112.398 214.105Z" fill="#F2A7AF"/>
<path d="M193.485 257.71V266.323C193.485 267.938 192.143 269.284 190.532 269.284H172.005C170.394 269.284 169.052 267.938 169.052 266.323V263.766" fill="white"/>
<path d="M169.052 247.751V230.524C169.052 228.909 170.394 227.563 172.005 227.563H190.398C192.009 227.563 193.351 228.909 193.351 230.524V245.597C193.351 246.136 193.62 247.212 193.351 247.616C193.217 248.02 192.68 248.154 192.277 248.424C191.875 248.693 191.472 249.231 191.338 249.635C190.935 250.577 191.338 251.788 192.277 252.057C192.546 252.192 192.814 252.192 193.083 252.327C193.351 252.461 193.486 252.865 193.351 253.134C193.217 253.269 193.083 253.269 192.949 253.403C192.277 253.807 191.74 254.48 191.74 255.422C191.74 256.364 192.143 257.037 192.68 257.575C192.949 257.71 193.217 257.979 193.217 258.248C193.351 258.517 193.217 258.787 193.083 259.056C192.546 260.402 192.009 261.747 191.069 262.689C189.727 264.035 187.713 264.439 185.833 264.708C183.148 265.112 180.463 265.247 177.778 265.381C175.63 265.516 173.348 265.65 171.2 265.381C170.663 265.381 169.992 265.247 169.455 264.977C168.918 264.708 168.649 263.901 168.918 263.362C169.186 262.959 169.723 262.689 169.992 262.286C170.26 261.882 170.26 261.344 170.26 260.94C170.126 259.19 169.857 257.441 169.186 255.691C168.918 254.749 168.515 253.807 168.918 252.999C169.186 252.461 169.857 252.192 170.394 251.788C171.066 251.384 171.603 250.711 171.871 249.904C172.005 249.096 171.737 248.154 171.066 247.751C170.663 247.481 170.126 247.481 169.723 247.481C169.32 247.481 169.052 247.616 168.649 247.751" fill="white"/>
<path d="M193.485 245.463C195.499 245.059 197.647 242.502 196.304 240.887C195.633 239.945 194.559 240.079 193.485 240.483" fill="#F2A7AF"/>
<path d="M191.337 250.308C191.337 253.269 196.305 253.269 196.17 250.308C196.305 247.347 191.337 247.347 191.337 250.308Z" fill="#F8CFC7"/>
<path d="M191.74 255.557C191.74 258.517 196.708 258.517 196.573 255.557C196.708 252.596 191.74 252.596 191.74 255.557Z" fill="#F8CFC7"/>
<path d="M158.177 288.26C160.997 284.357 163.011 279.916 164.085 275.206C164.353 273.86 164.622 272.379 164.622 270.899C164.622 269.419 164.353 268.073 164.219 266.727C163.95 264.304 163.682 261.747 163.548 259.19C163.413 257.037 163.413 254.749 164.085 252.596C164.756 250.442 166.233 248.424 168.381 247.751C169.32 247.481 171.468 247.616 171.871 248.424C172.408 249.366 172.542 251.519 170.126 252.326C169.186 252.596 169.186 252.73 169.052 253.672C168.918 254.211 168.918 254.48 169.052 254.884C169.589 256.633 170.529 258.921 170.394 260.671C170.26 262.689 168.649 262.959 168.918 266.323C169.052 267.938 169.589 268.207 171.066 268.746C172.542 269.284 174.153 269.149 175.63 269.015C178.181 268.88 180.463 269.149 183.014 269.015C183.282 269.015 184.759 268.88 185.028 269.015C185.699 269.419 184.357 270.899 183.819 271.572C182.477 273.052 181.134 274.129 180.329 276.013C179.792 277.224 179.255 278.839 179.121 280.185C178.852 283.415 178.584 285.838 178.718 289.068C179.121 294.047 179.658 299.027 177.241 303.064C176.704 303.872 176.033 304.68 175.093 304.949C173.885 305.218 172.811 304.41 171.871 303.737C169.992 302.257 168.246 300.777 166.635 299.027" fill="#F8CFC7"/>
<path d="M148.108 337.114C148.511 340.613 149.451 344.516 151.196 347.612C152.539 349.9 154.284 351.515 156.969 351.111C158.311 350.976 160.057 350.169 161.131 349.227C163.682 347.073 165.83 344.247 167.575 341.421C170.931 336.172 174.153 330.789 175.898 324.733C176.57 322.579 177.241 320.56 177.644 318.407C178.181 315.581 178.852 313.024 179.523 310.198C180.329 306.16 180.597 301.45 180.194 297.278C179.926 295.124 180.194 290.683 179.255 288.799C178.718 287.587 177.107 288.799 176.167 287.857C174.824 286.511 173.079 285.569 171.2 285.165C165.024 283.415 157.64 286.242 154.687 292.029C154.015 293.24 153.613 294.451 152.673 295.528C152.002 296.335 150.928 296.47 150.256 297.143C149.451 297.95 149.317 300.238 149.182 301.315C148.914 302.93 148.511 304.68 148.377 306.295C147.437 312.755 147.303 317.196 147.571 323.656C147.706 327.424 147.706 333.481 148.108 337.114Z" fill="#F8CFC7"/>
<path d="M88.501 243.175C94.9451 249.231 102.329 258.921 112.129 258.383C116.828 254.884 119.245 244.386 123.004 240.887C140.188 244.79 160.46 255.96 163.145 273.994C165.024 279.647 161.131 284.627 158.714 289.606C156.164 293.778 156.969 299.969 150.525 297.277C149.585 306.833 146.095 334.557 140.456 352.86C137.637 362.012 134.952 368.607 130.656 369.953C127.568 371.164 132.267 361.474 128.911 361.608C125.017 361.878 121.124 361.878 117.231 361.608C112.129 361.339 106.222 366.992 101.926 364.3C100.584 363.358 96.5561 368.876 94.9451 368.876C86.7557 369.01 91.0518 365.915 82.8625 366.184C82.1912 366.184 75.8814 363.089 75.6129 362.55C74.4046 360.397 74.4046 349.092 74.5389 346.535C71.1826 334.961 76.1499 323.79 76.5526 312.082C76.6869 298.489 59.5027 293.913 48.3599 295.797C51.9846 281.8 56.1464 265.919 67.5578 255.96C73.8676 250.577 82.0569 248.289 88.501 243.175Z" fill="white"/>
<path d="M49.2994 332C45.8089 320.695 47.0171 307.506 48.2254 295.797C48.2254 295.259 54.938 295.393 58.5628 295.932C61.6505 296.335 63.3958 297.277 66.4836 298.085C68.4974 298.623 70.9139 300.507 72.5249 301.988C74.5387 303.872 75.3442 304.68 74.2702 307.237C73.3304 309.794 71.4509 311.947 69.9741 314.37C68.3631 316.927 67.1548 319.618 65.1411 321.906C63.1273 324.06 60.4423 325.675 58.697 327.963C57.7572 329.174 57.086 330.52 56.4147 331.865C56.012 332.673 55.7435 333.346 55.3407 334.153" fill="#F8CFC7"/>
<path d="M128.508 255.96C127.836 255.691 126.897 256.364 126.36 256.633C121.124 258.652 116.291 260.536 111.189 262.824C110.115 263.362 108.504 264.17 107.565 264.708C104.477 266.458 102.06 268.073 99.778 270.764C94.0052 277.224 89.4406 284.357 83.5336 290.952C81.2513 293.509 78.5663 295.932 76.0155 298.219C74.136 299.834 72.1222 301.584 70.1084 303.064C66.4836 305.756 62.3218 308.044 59.2341 311.543C56.2805 314.773 54.401 318.945 53.7298 323.252C53.4612 325.002 49.2995 328.232 48.8967 329.981C48.8967 330.116 48.8967 330.116 48.7625 330.25C48.7625 330.385 48.8967 330.52 48.8967 330.654C49.8365 334.557 51.4475 338.998 52.6557 342.901C53.327 345.324 54.2668 347.342 55.7435 349.361C56.2805 350.034 58.16 351.649 58.9656 351.918C60.1738 352.322 61.7848 352.726 63.1273 352.86C64.6041 352.995 66.2151 352.322 67.2891 351.649C70.9139 349.765 73.4647 347.612 76.0155 344.651C77.358 343.036 79.2375 340.479 80.4458 338.729C82.4595 335.634 83.6678 332.807 85.5473 329.712C86.6213 327.962 87.8296 325.002 88.7694 323.117C91.1859 318.138 93.0654 312.754 95.2134 307.775C96.2874 305.352 97.3614 302.93 98.3012 300.507C100.046 291.087 103 289.741 103 289.741C106.088 288.26 111.592 284.627 111.592 284.627C120.453 280.454 118.976 272.379 118.976 272.379C118.573 271.034 118.439 270.091 118.439 269.284C118.17 268.88 118.17 268.611 118.17 268.342C118.036 267.4 118.17 266.861 118.707 266.323C118.842 266.189 119.11 265.919 119.244 265.785C120.184 264.977 121.929 263.766 123.003 263.228C124.614 262.42 126.091 261.613 127.568 260.671C128.105 260.267 128.642 259.863 129.045 259.325C129.448 258.786 130.119 258.114 130.119 257.441C130.119 256.768 129.179 256.229 128.508 255.96Z" fill="#F8CFC7"/>
<path d="M89.9774 202.665C90.2459 204.549 90.5144 206.434 90.7829 208.318C89.8432 207.645 88.2321 208.049 87.5609 209.125C86.8896 210.202 86.8896 211.548 87.1581 212.759C87.4266 213.701 87.8294 214.643 88.6349 215.316C89.4404 215.854 90.9172 215.989 91.5884 215.316C92.9309 222.449 93.6022 228.774 92.6624 235.504C92.3939 237.522 91.5884 240.483 89.9774 241.694C89.5747 242.098 86.0841 244.386 86.2184 244.655C89.7089 250.577 97.3612 253.269 103.403 256.768C105.282 257.845 109.175 259.998 111.323 259.594C113.069 259.19 113.606 257.71 114.948 256.633C119.378 252.73 121.929 247.212 124.48 241.829C124.749 241.291 121.929 240.618 121.526 240.483C118.036 239.137 114.545 237.792 113.471 234.158C113.203 233.081 112.8 230.12 112.8 228.909C112.8 224.199 113.069 220.027 112.934 215.316C112.934 214.912 112.263 202.261 111.86 200.377C111.458 198.628 109.847 197.551 108.37 196.609C106.088 195.263 103.537 194.186 101.12 193.244C99.1065 192.571 97.0927 192.168 95.079 192.302C93.0652 192.437 90.9172 193.244 89.5747 194.859" fill="#F8CFC7"/>
<path d="M113.203 232.677C112.935 231.331 112.8 229.582 112.8 228.774C112.8 226.756 112.8 224.871 112.8 222.987C110.921 229.447 102.866 230.12 95.6162 224.199C95.7505 224.199 103.537 233.081 113.203 232.677Z" fill="#F2A7AF"/>
<path d="M181.135 253.538C185.213 253.538 188.518 250.224 188.518 246.136C188.518 242.048 185.213 238.734 181.135 238.734C177.057 238.734 173.751 242.048 173.751 246.136C173.751 250.224 177.057 253.538 181.135 253.538Z" fill="#81E291"/>
<path d="M178.047 245.732L181 248.693L189.458 238.33" stroke="white" stroke-width="2" stroke-miterlimit="10"/>
<path d="M148.377 312.889C147.974 314.504 147.705 316.254 147.437 317.869C147.437 318.811 147.437 319.753 147.437 320.695C147.437 320.56 147.437 320.426 147.437 320.291C147.84 317.734 148.108 315.312 148.377 312.889Z" fill="white"/>
<path d="M70.1082 303.199C70.7794 302.795 71.5849 302.257 72.2562 301.853C71.7192 301.18 72.1219 301.719 71.5849 301.18C71.3164 300.911 69.7054 299.7 69.5711 299.565C69.3026 299.7 69.3026 299.835 69.1684 299.969C67.8259 301.046 66.3491 301.988 64.8723 302.93C61.7846 305.083 58.831 307.91 56.9515 311.14C55.609 313.428 53.5952 317.734 54.535 320.56C55.4748 317.196 57.0858 314.1 59.5023 311.678C62.3216 308.179 66.4834 305.891 70.1082 303.199Z" fill="#F2A7AF"/>
<path d="M150.256 297.281C150.256 297.143 150.394 297.143 150.394 297.143H150.256C150.256 297.143 150.256 297.281 150.256 297.281Z" fill="#E5E5E5"/>
<path d="M148.108 337.114C148.511 340.613 149.451 344.516 151.196 347.612C152.539 349.9 154.284 351.515 156.969 351.111C158.311 350.976 160.057 350.169 161.131 349.227C163.681 347.073 165.829 344.247 167.575 341.421C170.931 336.172 174.153 330.789 175.898 324.732C176.57 322.579 177.241 320.56 177.644 318.407C178.181 315.581 178.852 313.024 179.523 310.197C179.523 309.928 179.657 309.659 179.657 309.39C176.033 315.985 173.75 323.521 169.454 329.712C168.38 331.193 167.172 332.808 165.561 333.75C163.95 334.692 161.936 335.23 160.191 334.692C157.103 333.615 155.761 330.116 155.224 326.886C153.613 317.6 155.224 308.179 155.761 298.892C155.895 297.681 155.895 296.47 155.895 295.259C155.761 295.662 155.492 296.201 155.358 296.739C155.224 297.008 154.418 297.412 154.15 297.547C153.881 297.681 153.21 297.681 152.807 297.547C151.733 297.412 151.33 297.277 150.391 297.008L150.256 297.143C149.988 302.257 149.585 307.237 148.511 312.351C148.511 312.485 148.511 312.485 148.511 312.62C148.243 315.042 147.974 317.465 147.571 319.887C147.571 320.022 147.571 320.157 147.571 320.291C147.571 321.368 147.571 322.445 147.706 323.521C147.706 327.424 147.706 333.48 148.108 337.114Z" fill="#F2A7AF"/>
<path d="M150.122 271.976L150.256 272.11C151.33 272.513 150.122 271.976 150.122 271.976Z" fill="#E5E5E5"/>
<path d="M149.182 307.102C148.914 308.986 148.779 311.005 148.511 312.889C148.511 312.755 148.511 312.755 148.511 312.62C149.585 307.506 150.122 302.526 150.256 297.412L150.122 297.547C149.854 300.642 149.451 303.872 149.182 307.102Z" fill="#E5E5E5"/>
<path d="M193.351 257.575V266.189C193.351 267.804 192.008 269.15 190.397 269.15H172.005C170.394 269.15 169.052 267.804 169.052 266.189V263.632" stroke="#0A2144" stroke-width="0.5" stroke-miterlimit="10" stroke-linecap="round" stroke-linejoin="round"/>
<path d="M193.351 252.327V253.269" stroke="#0A2144" stroke-width="0.5" stroke-miterlimit="10" stroke-linecap="round" stroke-linejoin="round"/>
<path d="M169.052 247.616V230.389C169.052 228.774 170.394 227.429 172.005 227.429H190.397C192.008 227.429 193.351 228.774 193.351 230.389V245.463V247.751" stroke="#0A2144" stroke-width="0.5" stroke-miterlimit="10" stroke-linecap="round" stroke-linejoin="round"/>
<path d="M91.5884 208.991C82.0566 206.164 80.9826 190.283 91.0514 186.784C95.616 184.093 100.852 184.093 105.819 185.438C108.638 186.111 109.041 183.151 106.759 182.074C113.203 180.459 122.198 183.151 124.212 190.149C127.031 203.203 114.948 209.394 104.745 201.858C94.9447 192.437 89.4404 195.936 91.5884 208.991Z" fill="#0A2144"/>
<path d="M99.5094 203.473C98.3011 203.473 97.2271 203.338 96.2873 203.607C95.8846 203.742 95.4818 203.876 95.0791 204.146C94.6763 204.415 94.2736 204.819 93.7366 205.222C93.7366 204.549 93.8708 203.876 94.2736 203.338C94.6763 202.8 95.2133 202.396 95.8846 202.127C96.5559 201.992 97.2271 201.992 97.8984 202.261C98.5696 202.531 99.1066 202.934 99.5094 203.473Z" fill="black"/>
<path d="M105.819 203.473C106.088 203.069 106.625 202.8 107.027 202.8C107.43 202.665 107.967 202.8 108.37 202.934C109.175 203.204 109.981 203.742 110.249 204.684C109.712 204.684 109.31 204.684 109.041 204.549C108.638 204.549 108.37 204.415 107.967 204.28L107.027 203.876C106.625 203.742 106.356 203.607 105.819 203.473Z" fill="black"/>
<path d="M109.578 215.181C109.578 215.181 103 217.335 97.2268 215.181C97.4953 218.008 107.43 228.909 109.578 215.181Z" fill="#0A2144"/>
<path d="M98.3011 207.241C98.3011 208.856 96.0188 208.856 96.0188 207.241C96.0188 205.491 98.3011 205.491 98.3011 207.241Z" fill="#0A2144"/>
<path d="M109.041 206.568C109.175 208.183 106.893 208.318 106.759 206.703C106.49 205.088 108.907 204.953 109.041 206.568Z" fill="#0A2144"/>
<path d="M94.9451 207.241C94.9451 207.241 96.4218 205.357 99.2411 206.299" stroke="#0A2144" stroke-width="0.5" stroke-miterlimit="10" stroke-linecap="round" stroke-linejoin="round"/>
<path d="M105.819 206.164C105.819 206.164 107.699 204.953 110.115 206.299" stroke="#0A2144" stroke-width="0.5" stroke-miterlimit="10" stroke-linecap="round" stroke-linejoin="round"/>
<path d="M106.222 211.682C105.282 213.432 103.805 212.759 102.329 212.355" stroke="#0A2144" stroke-width="0.5" stroke-miterlimit="10" stroke-linecap="round" stroke-linejoin="round"/>
<path d="M87.6951 189.072C87.6951 189.072 79.2373 196.205 85.2786 204.28C85.2786 204.28 83.1305 200.646 85.4128 197.686" fill="#0A2144"/>
<path d="M123.138 187.861C123.138 187.861 118.707 179.517 109.31 180.593C109.31 180.593 114.814 179.651 118.573 186.246" fill="#0A2144"/>
<path d="M91.8569 280.724C102.06 266.189 108.773 262.555 128.642 255.826C128.642 255.826 131.73 256.902 128.373 259.998L119.244 265.516C118.036 266.189 117.633 267.669 118.17 268.88C118.17 268.88 121.795 278.436 112.934 283.684" stroke="#0A2144" stroke-width="0.5" stroke-miterlimit="10" stroke-linecap="round" stroke-linejoin="round"/>
<path d="M91.8568 280.589C85.547 289.606 77.8946 297.681 69.0341 304.276C62.7242 308.852 54.9377 313.966 54.5349 322.445" stroke="#0A2144" stroke-width="0.5" stroke-miterlimit="10" stroke-linecap="round" stroke-linejoin="round"/>
<path d="M48.0908 295.662C55.3404 294.586 63.5297 295.797 69.571 299.565" stroke="#0A2144" stroke-width="0.5" stroke-miterlimit="10" stroke-linecap="round" stroke-linejoin="round"/>
<path d="M55.4746 289.606C63.1269 289.472 71.3163 292.432 75.8808 298.354" stroke="#0A2144" stroke-width="0.5" stroke-miterlimit="10" stroke-linecap="round" stroke-linejoin="round"/>
<path d="M164.755 274.398C163.413 281.666 158.714 288.26 156.298 295.259C153.478 303.065 151.733 311.409 151.062 319.618" stroke="#0A2144" stroke-width="0.5" stroke-miterlimit="10" stroke-linecap="round" stroke-linejoin="round"/>
<path d="M166.903 264.977C174.287 261.882 167.843 255.018 169.454 252.865" stroke="#0A2144" stroke-width="0.5" stroke-miterlimit="10" stroke-linecap="round" stroke-linejoin="round"/>
<path d="M150.39 280.185C151.196 305.353 146.9 327.424 141.127 351.111" stroke="#0A2144" stroke-width="0.5" stroke-miterlimit="10" stroke-linecap="round" stroke-linejoin="round"/>
<path d="M80.4456 287.453C80.5798 286.645 80.7141 285.972 80.8483 285.165" stroke="#0A2144" stroke-width="0.5" stroke-miterlimit="10" stroke-linecap="round" stroke-linejoin="round"/>
<path d="M77.4919 297.143C78.566 294.855 79.3715 292.432 79.9085 289.875" stroke="#0A2144" stroke-width="0.5" stroke-miterlimit="10" stroke-linecap="round" stroke-linejoin="round"/>
<path d="M100.315 296.066L98.5695 301.18L83.2649 290.01L86.3527 285.703L100.315 296.066Z" fill="#EF5411"/>
<path d="M90.9172 298.22C89.5746 297.143 85.8156 295.393 87.5609 293.105C88.9034 291.894 90.9172 286.511 93.4679 288.529C94.8104 289.606 98.5695 291.356 96.8242 293.644C95.4817 294.855 93.3337 300.104 90.9172 298.22Z" fill="#0A2144" stroke="#0A2144" stroke-width="0.5" stroke-miterlimit="10" stroke-linecap="round" stroke-linejoin="round"/>
<path d="M167.709 247.616V230.389C167.709 228.774 169.051 227.429 170.662 227.429H189.055" stroke="#0A2144" stroke-width="0.5" stroke-miterlimit="10" stroke-linecap="round" stroke-linejoin="round"/>
<path d="M188.786 269.284H170.394C168.783 269.284 167.44 267.938 167.44 266.323V264.843" stroke="#0A2144" stroke-width="0.5" stroke-miterlimit="10" stroke-linecap="round" stroke-linejoin="round"/>
<path d="M122.6 245.194C120.318 249.5 116.156 256.364 111.054 259.594C111.054 259.594 93.3333 255.018 86.0837 244.655" stroke="#0A2144" stroke-width="0.5" stroke-miterlimit="10" stroke-linecap="round" stroke-linejoin="round"/>
<path d="M106.088 360.801C93.3342 360.801 81.7886 357.706 74.2705 354.341L61.7852 566.714L83.2654 567.118C83.2654 567.118 97.8988 470.083 105.685 417.326C105.954 417.326 106.088 417.326 106.222 417.192L119.513 565.503L142.067 565.906C142.067 565.906 141.799 387.718 140.591 352.995C133.61 357.571 121.258 360.801 106.088 360.801Z" fill="#87AAE8"/>
<path d="M110.518 384.219C110.518 385.026 97.3617 472.775 94.1396 494.846" stroke="#0A2144" stroke-width="0.5" stroke-miterlimit="10" stroke-linecap="round" stroke-linejoin="round"/>
<path d="M118.573 360.666L116.023 378.835L110.787 381.931L111.861 361.07" stroke="#0A2144" stroke-width="0.5" stroke-miterlimit="10" stroke-linecap="round" stroke-linejoin="round"/>
<path d="M140.725 352.861C140.725 352.861 115.754 370.222 74.5388 354.341" stroke="#0A2144" stroke-width="0.5" stroke-miterlimit="10" stroke-linecap="round" stroke-linejoin="round"/>
<path d="M93.871 362.281C93.871 362.685 76.821 377.355 76.821 377.355" stroke="#0A2144" stroke-width="0.5" stroke-miterlimit="10" stroke-linecap="round" stroke-linejoin="round"/>
<path d="M126.762 362.82C127.165 363.089 138.174 377.489 138.174 377.489" stroke="#0A2144" stroke-width="0.5" stroke-miterlimit="10" stroke-linecap="round" stroke-linejoin="round"/>
<path d="M112.934 222.853C112.8 223.66 112.397 224.468 111.86 225.275C111.323 225.948 110.786 226.756 109.981 227.294C108.504 228.371 106.49 228.774 104.745 228.505C104.476 228.505 104.342 228.505 104.074 228.371L103.402 228.236C103 228.101 102.463 227.967 102.06 227.832C101.254 227.429 100.315 227.294 99.6434 226.756C98.8379 226.352 98.0324 225.948 97.3612 225.41C96.6899 224.871 95.8844 224.333 95.2131 223.795C96.8242 224.602 98.3009 225.544 99.9119 226.217C100.717 226.621 101.523 226.89 102.328 227.159C102.731 227.294 103.134 227.294 103.537 227.429L104.208 227.563H104.879C106.624 227.832 108.37 227.563 109.712 226.621C111.189 225.948 112.263 224.468 112.934 222.853Z" fill="#0A2144"/>
<g clip-path="url(#clip0)">
<path d="M281.118 199.273C284.537 201.88 287.295 205.249 289.721 208.834C297.222 220.025 301.855 233.172 304.171 246.427C305.164 252.077 305.825 257.944 305.053 263.703C290.604 263.485 276.044 262.616 261.595 261.095C260.602 260.986 259.609 260.878 258.837 260.334C257.514 259.465 257.293 257.727 257.072 256.206C256.631 252.294 256.08 248.383 255.639 244.58C254.646 236.975 253.763 229.26 255.087 221.655C256.411 214.049 260.382 206.661 267.22 202.858" fill="#0A2144"/>
<path d="M235.442 392.115C235.442 392.115 241.429 484.006 251.97 524.585L267.119 522.414L271.669 382.742L235.442 392.115Z" fill="#F8CFC7"/>
<path d="M271.559 382.739L235.442 392.115C235.442 392.115 235.729 396.904 236.362 404.704L270.947 401.502L271.559 382.739Z" fill="#F2A7AF"/>
<path d="M294.271 301.568C319.953 261.952 302.464 254.266 289.639 242.954L289.624 243.398C287.569 245.221 285.414 246.706 283.045 247.962C279.886 249.637 276.202 250.406 272.648 250.623C270.536 250.776 268.317 250.814 266.227 250.301C264.138 249.788 262.062 248.831 260.673 247.23C259.495 245.969 258.766 244.5 258.378 242.82C258.935 242.727 258.939 242.616 258.378 242.82C224.28 251.484 221.46 317.634 243.62 311.247C232.873 338.237 235.545 392.341 235.545 392.341C263.061 405.356 311.712 392.389 311.712 392.389C316.683 307.859 297.208 327.117 294.271 301.568Z" fill="#CE5B52"/>
<path d="M299.564 251.393L295.229 255.141C288.281 260.804 281.229 286.692 277.83 282.135C277.405 281.566 275.752 277.844 275.095 277.6C272.144 276.281 269.433 274.414 267.062 272.335C264.135 283.91 264.509 296.259 267.905 307.707C269.307 312.31 275.736 319.189 281.048 319.474C284.146 319.687 286.659 313.99 289.624 314.865C293.468 315.991 296.27 321.862 298.588 325.606C304.161 334.902 306.679 346.099 309.443 356.526C311.027 362.357 311.832 368.275 312.412 374.295C313.824 310.544 297.052 325.111 294.271 301.568C313.414 272.075 308.589 260.246 299.564 251.393Z" fill="#93271F"/>
<path d="M249.561 285.433C249.282 276.977 247.114 268.681 245.052 260.5L238.837 257.296C224.376 279.163 226.845 315.699 243.631 310.914C241.092 317.388 239.281 325.331 238.009 333.737C244.087 324.155 246.907 312.466 248.498 301.07C249.103 296.088 249.72 290.773 249.561 285.433Z" fill="#93271F"/>
<path d="M253.346 237.32L259.957 252.208C260.474 253.336 259.659 254.532 258.438 254.603L249.548 255.201C248.88 255.291 248.23 254.825 247.916 254.259L240.941 240.36C240.419 239.342 241.016 238.028 242.242 237.846L251.496 236.259C252.275 236.174 253.036 236.643 253.346 237.32Z" fill="#EFD800"/>
<path d="M259.957 252.208L253.346 237.32C253.035 236.643 252.275 236.174 251.496 236.259L242.242 237.846C241.463 237.931 240.884 238.69 240.862 239.357C241.091 239.142 241.43 238.931 241.763 238.942L251.017 237.355C251.795 237.269 252.56 237.628 252.867 238.416L259.367 253.3C259.467 253.637 259.57 253.862 259.559 254.195C260.02 253.655 260.267 252.885 259.957 252.208Z" fill="#0A2144"/>
<path d="M244.725 242.503C245.175 242.185 245.169 241.399 244.71 240.747C244.252 240.095 243.516 239.824 243.066 240.142C242.615 240.46 242.622 241.246 243.08 241.898C243.538 242.55 244.274 242.821 244.725 242.503Z" fill="#0A2144"/>
<path d="M280.169 285.213C280.169 285.213 270.286 268.662 268.762 264.389C268.762 264.389 265.678 250.172 256.489 249.76C256.992 251.333 256.473 253.65 252.37 257.072C253.97 259.014 255.659 261.626 258.352 264.048C258.352 264.048 258.537 265.165 259.573 274.202C259.573 274.202 259.366 300.981 277.135 313.678C279.521 315.312 282.743 315.084 284.695 313.036C287.447 310.236 291.593 305.482 295.794 299.062C314.277 269.435 307.429 258.43 297.514 249.659C295.091 252.58 290.883 259.222 286.415 273.858C286.415 273.858 284.476 278.907 282.138 282.61C281.552 283.591 280.859 284.457 280.169 285.213Z" fill="#F8CFC7"/>
<path d="M247.869 282.933C246.391 270.436 248.064 259.932 248.064 259.932C249.647 258.983 250.894 258.135 251.92 257.28C249.784 254.764 248.624 252.948 248.624 252.948C245.782 248.298 256.049 249.635 256.492 249.649C256.2 248.417 255.221 247.829 255.221 247.829C253.139 247.094 250.931 246.8 248.937 246.734C223.882 263.697 223.6 316.593 243.52 310.91C250.28 300.795 247.869 282.933 247.869 282.933Z" fill="#F5C7B7"/>
<path d="M256.489 249.76C256.046 249.746 245.778 248.409 248.62 253.059C248.62 253.059 249.781 254.875 251.916 257.391C256.466 253.872 256.881 251.329 256.489 249.76Z" fill="#F5C7B7"/>
<path d="M272.651 250.512C276.206 250.295 279.89 249.526 283.049 247.851C285.418 246.595 287.573 245.109 289.628 243.287C289.628 243.287 289.853 243.184 289.857 243.072C289.857 243.072 289.639 242.954 289.643 242.843C278.719 237.817 280.123 228.75 279.255 221.386L267.083 227.433C267.352 243.003 260.061 242.208 260.061 242.208C259.503 242.301 258.832 242.501 258.274 242.594C258.774 244.278 259.502 245.746 260.57 247.004C262.07 248.609 264.034 249.563 266.124 250.076C268.325 250.592 270.429 250.661 272.651 250.512Z" fill="#F8CFC7"/>
<path d="M266.527 234.306C266.977 234.099 267.538 233.895 267.989 233.687C270.565 232.882 273.562 232.758 276.07 234.063C278.574 235.479 280.366 238.316 283.113 239.073C283.553 239.198 283.996 239.213 284.324 239.335C279.06 234.161 279.838 227.295 279.144 221.382L266.973 227.43C267.104 230.213 266.921 232.43 266.527 234.306Z" fill="#F2A7AF"/>
<path d="M281.957 226.92C282.289 226.931 282.718 227.39 282.593 227.83C282.578 228.274 282.235 228.596 281.788 228.693C281.563 228.797 281.345 228.678 281.127 228.56C280.91 228.442 280.806 228.216 280.703 227.99C280.492 227.65 280.506 227.206 280.406 226.869L280.842 227.106C280.167 227.417 280.238 228.642 280.659 229.323C280.766 229.437 280.873 229.552 280.984 229.556C281.095 229.559 281.209 229.452 281.324 229.345C281.438 229.237 281.445 229.015 281.338 228.9C281.231 228.786 281.01 228.779 280.788 228.771C281.01 228.779 281.235 228.675 281.453 228.793C281.67 228.911 281.66 229.244 281.542 229.463C281.424 229.681 281.195 229.896 280.973 229.889C280.641 229.878 280.423 229.76 280.32 229.534C279.891 229.075 279.798 228.517 279.813 228.073C279.831 227.517 279.963 226.855 280.635 226.655L280.975 226.443L280.96 226.887C280.949 227.221 281.049 227.557 281.149 227.894C281.249 228.231 281.467 228.349 281.688 228.356C281.91 228.363 282.253 228.041 282.371 227.823C282.493 227.493 282.286 227.042 281.957 226.92Z" fill="#0A2144"/>
<path d="M287.765 211.994C288.24 221.235 284.23 225.216 279.82 227.85C279.03 228.269 279.68 221.955 278.783 222.259C276.985 222.978 273.861 226.988 271.757 226.92C263.229 226.64 256.587 219.532 256.865 210.983C257.144 202.434 264.345 195.778 272.873 196.058C281.401 196.337 287.379 203.424 287.765 211.994Z" fill="#0A2144"/>
<path d="M284.251 217.77C284.178 219.991 282.073 223.367 280.079 223.302C278.086 223.237 277.472 221.661 277.544 219.44C277.616 217.219 279.025 214.82 281.019 214.886C283.012 214.951 284.319 215.661 284.251 217.77Z" fill="#F8CFC7"/>
<path d="M283.547 218.97C283.193 219.625 282.614 220.384 281.938 220.695C281.259 221.118 280.262 221.085 279.723 220.623C278.966 220.042 278.891 218.928 278.134 218.348C278.023 218.344 277.913 218.341 277.806 218.226C277.68 218.666 277.555 219.107 277.541 219.551C277.468 221.772 278.082 223.348 280.076 223.413C282.069 223.478 284.179 219.991 284.247 217.881C284.255 217.659 284.265 217.326 284.162 217.1C284.14 217.766 283.897 218.425 283.547 218.97Z" fill="#F2A7AF"/>
<path d="M263.706 222.21C268.416 222.364 272.388 217.767 272.577 211.942C272.767 206.117 269.103 201.269 264.393 201.115C259.683 200.961 255.711 205.558 255.522 211.383C255.332 217.209 258.996 222.056 263.706 222.21Z" fill="#0A2144"/>
<path d="M279.156 217.603C279.087 219.713 279.994 222.521 278.939 224.265C276.129 228.841 270.819 231.89 267.275 231.774C262.291 231.611 259.06 225.281 259.302 217.842C259.545 210.404 259.92 202.302 264.903 202.466C268.891 202.596 277.023 208.197 279.818 214.291C280.443 215.534 279.203 216.16 279.156 217.603Z" fill="#F8CFC7"/>
<path d="M271.059 221.117C271.059 221.117 266.631 224.307 261.901 223.151C261.901 223.151 263.167 228.528 267.741 227.677C267.852 227.681 271.517 227.467 271.059 221.117Z" fill="#0A2144"/>
<path d="M262.555 223.506C263.408 224.534 264.605 225.24 266.045 225.288C268.26 225.36 270.197 223.756 270.712 221.55C269.579 222.291 266.195 224.07 262.555 223.506Z" fill="white"/>
<path d="M268.58 212.144C269.498 211.174 271.059 210.892 272.374 211.379C273.031 211.623 273.571 212.085 273.996 212.655C274.21 212.884 274.31 213.221 274.524 213.45C274.624 213.787 274.724 214.124 274.827 214.349C274.502 214.117 274.288 213.887 274.07 213.769C273.856 213.54 273.638 213.421 273.424 213.192C272.992 212.845 272.445 212.604 272.009 212.368C271.023 212.002 269.916 211.966 268.58 212.144Z" fill="#0A2144"/>
<path d="M263.939 211.659C263.046 211.852 262.267 211.938 261.488 212.023C260.709 212.109 260.259 212.316 259.462 212.957C259.365 212.51 259.494 211.958 259.952 211.528C260.298 211.095 260.856 211.002 261.302 210.906C261.749 210.809 262.303 210.827 262.742 210.953C263.178 211.189 263.617 211.315 263.939 211.659Z" fill="#0A2144"/>
<path d="M274.212 216.219C274.212 216.219 271.316 213.234 268.996 216.382" stroke="#0A2144" stroke-width="0.2" stroke-miterlimit="10" stroke-linecap="round" stroke-linejoin="round"/>
<path d="M263.823 215.212C263.823 215.212 261.58 212.582 259.94 215.307" stroke="#0A2144" stroke-width="0.2" stroke-miterlimit="10" stroke-linecap="round" stroke-linejoin="round"/>
<path d="M271.903 217.154C272.314 216.786 272.316 216.117 271.908 215.659C271.5 215.202 270.837 215.13 270.426 215.498C270.015 215.866 270.013 216.535 270.421 216.992C270.829 217.449 271.493 217.522 271.903 217.154Z" fill="#0A2144"/>
<path d="M271.814 216.048C271.831 215.926 271.746 215.814 271.625 215.797C271.504 215.78 271.392 215.865 271.375 215.986C271.358 216.108 271.442 216.221 271.564 216.237C271.685 216.254 271.797 216.169 271.814 216.048Z" fill="white"/>
<path d="M262.514 216.529C262.924 216.161 262.927 215.492 262.519 215.035C262.111 214.577 261.447 214.505 261.037 214.873C260.626 215.241 260.624 215.91 261.032 216.368C261.44 216.825 262.103 216.897 262.514 216.529Z" fill="#0A2144"/>
<path d="M262.445 215.426C262.462 215.304 262.377 215.192 262.255 215.175C262.134 215.158 262.022 215.243 262.005 215.365C261.988 215.487 262.073 215.599 262.194 215.616C262.316 215.633 262.428 215.548 262.445 215.426Z" fill="white"/>
<path d="M260.678 216.443C260.789 216.446 261.543 217.136 262.776 216.733" stroke="#0A2144" stroke-width="0.2" stroke-miterlimit="10" stroke-linecap="round" stroke-linejoin="round"/>
<path d="M270.185 217.31C270.185 217.31 271.5 217.797 272.633 217.056" stroke="#0A2144" stroke-width="0.2" stroke-miterlimit="10" stroke-linecap="round" stroke-linejoin="round"/>
<path d="M262.282 201.268C262.282 201.268 262.557 209.835 279.16 217.492C279.16 217.492 279.8 214.846 281.465 214.789C283.02 214.729 277.778 205.443 277.778 205.443L274.414 203.221" fill="#0A2144"/>
<path d="M251.064 252.917C250.735 252.795 250.492 253.454 250.463 254.342C250.917 254.023 251.256 253.812 251.703 253.716C251.385 253.261 251.175 252.92 251.064 252.917Z" fill="#F5C7B7"/>
<path d="M252.974 255.536C253.225 254.655 253.472 253.885 252.371 253.627C252.15 253.619 251.928 253.612 251.592 253.712C251.91 254.167 252.221 254.844 252.328 254.959C252.542 255.188 252.756 255.418 252.974 255.536Z" fill="#F5C7B7"/>
<path d="M290.673 303.117C287.27 305.451 282.897 306.975 278.835 305.731C274.884 304.49 272.231 300.847 270.128 297.332C264.023 287.352 259.744 275.763 261.671 264.267C261.946 262.609 262.237 260.507 260.94 259.464C260.29 258.998 259.408 258.858 258.636 258.722C256.982 258.446 255.457 257.618 254.157 256.686C253.942 256.457 253.617 256.224 253.403 255.994C253.185 255.876 253.082 255.65 252.867 255.421C252.653 255.192 252.435 255.073 252.332 254.848C252.225 254.733 251.914 254.056 251.596 253.601C251.15 253.698 250.81 253.909 250.356 254.227C250.131 254.331 250.013 254.55 249.788 254.653C248.19 256.046 246.678 258.219 246.092 259.2C244.329 262.255 243.553 265.675 243.105 269.217C242.234 275.524 242.139 281.856 242.265 288.195C242.296 290.641 242.323 293.199 241.583 295.508C240.842 297.818 238.998 299.981 236.547 300.345C234.207 300.713 232.139 299.534 229.963 298.24C231.553 307.295 236.131 313.113 243.513 311.132C250.28 300.795 247.869 282.933 247.869 282.933C246.391 270.436 248.064 259.932 248.064 259.932C248.968 259.406 249.872 258.88 250.555 258.346C251.008 258.028 252.023 257.505 252.477 257.187C253.227 257.989 253.412 259.107 254.38 260.028C255.559 261.289 256.955 262.668 258.466 263.94C258.466 263.94 258.651 265.058 259.687 274.094C259.687 274.094 259.48 300.874 277.249 313.57C279.635 315.204 282.858 314.976 284.809 312.929C287.561 310.129 291.708 305.374 295.908 298.954C296.026 298.736 296.144 298.517 296.377 298.192C294.543 300.021 292.713 301.739 290.673 303.117Z" fill="#F2A7AF"/>
<path d="M262.743 200.728C262.743 200.728 250.163 202.316 255.126 216.705C255.126 216.705 252.985 210.967 257.649 207.341" fill="#0A2144"/>
<path d="M262.592 201.945C262.592 201.945 260.654 206.994 271.812 215.029C271.812 215.029 264.993 209.915 266.182 204.063" fill="#0A2144"/>
<path d="M289.746 243.069C289.746 243.069 282.35 252.274 267.224 250.334C267.224 250.334 260.486 249.558 258.556 244.159" stroke="#0A2144" stroke-width="0.5" stroke-miterlimit="10" stroke-linecap="round" stroke-linejoin="round"/>
<path d="M281.784 283.265L283.753 290.887L280.397 284.998C280.287 284.994 281.205 284.024 281.784 283.265Z" fill="#0A2144"/>
<path d="M251.064 252.917C250.735 252.795 250.492 253.454 250.463 254.342C250.917 254.024 251.257 253.812 251.703 253.716C251.386 253.261 251.175 252.921 251.064 252.917Z" fill="#F5C7B7"/>
<path d="M252.974 255.536C253.225 254.655 253.472 253.885 252.371 253.627C252.15 253.619 251.928 253.612 251.593 253.712C251.91 254.167 252.221 254.844 252.328 254.959C252.542 255.188 252.757 255.418 252.974 255.536Z" fill="#F5C7B7"/>
<path d="M259.392 252.523C259.392 252.523 255.149 250.05 252.565 251.077" stroke="#0A2144" stroke-width="0.5" stroke-miterlimit="10" stroke-linecap="round" stroke-linejoin="round"/>
<path d="M257.777 254.47C257.777 254.47 253.758 251.894 251.839 252.942C250.935 253.468 250.452 254.675 250.527 255.789C250.52 256.011 250.627 256.126 250.734 256.24C251.059 256.473 251.409 255.929 251.852 255.944C252.074 255.951 252.288 256.18 252.392 256.406C252.495 256.631 252.484 256.965 252.477 257.187C252.555 258.189 256.948 262.89 257.816 263.474" stroke="#0A2144" stroke-width="0.5" stroke-miterlimit="10" stroke-linecap="round" stroke-linejoin="round"/>
<path d="M252.48 250.296C252.48 250.296 258.315 248.153 262.504 252.291C262.504 252.291 267.336 257.117 268.873 264.392L272.932 272.528L284.482 292.356" stroke="#0A2144" stroke-width="0.5" stroke-miterlimit="10" stroke-linecap="round" stroke-linejoin="round"/>
<path d="M281.083 223.113C281.083 223.113 279.396 223.835 279.469 221.615L279.175 223.828L279.415 223.28C279.304 223.277 280.068 223.635 281.083 223.113Z" fill="#0A2144"/>
<path d="M248.934 246.845C223.878 263.808 223.596 316.704 243.517 311.021" stroke="#0A2144" stroke-width="0.5" stroke-miterlimit="10" stroke-linecap="round" stroke-linejoin="round"/>
<path d="M265.298 217.594C264.936 218.471 264.686 219.352 264.546 220.237L264.543 220.348C264.543 220.348 264.65 220.463 264.761 220.466C265.204 220.481 265.536 220.492 265.979 220.506" stroke="#0A2144" stroke-width="0.5" stroke-miterlimit="10" stroke-linecap="round" stroke-linejoin="round"/>
<path d="M255.769 261.629C255.769 261.629 258.462 264.051 260.252 263.554L258.633 265.613L258.355 263.937C258.351 264.048 256.198 262.088 255.769 261.629Z" fill="#271314"/>
<path d="M249.758 258.987C249.758 258.987 248.185 259.603 247.31 259.24C247.31 259.24 248.049 260.376 247.906 261.372C247.91 261.261 248.171 260.047 248.171 260.047C248.171 260.047 249.414 259.309 249.758 258.987Z" fill="#271314"/>
<path d="M283.14 217.845C283.14 217.845 281.761 215.91 280.674 218.653" stroke="#0A2144" stroke-width="0.5" stroke-miterlimit="10" stroke-linecap="round" stroke-linejoin="round"/>
<path d="M279.304 223.277C279.046 224.38 278.567 225.475 277.874 226.342C277.177 227.319 276.376 228.071 275.575 228.823C274.668 229.46 273.649 230.094 272.638 230.505C272.077 230.709 271.516 230.913 271.069 231.009C270.512 231.102 269.955 231.195 269.397 231.288C270.405 230.988 271.527 230.58 272.542 230.057C273.557 229.535 274.464 228.898 275.372 228.26C276.28 227.623 276.973 226.757 277.667 225.89C278.242 225.242 278.828 224.261 279.304 223.277Z" fill="#0A2144"/>
<path d="M242.482 227.073L241.753 235.829" stroke="#0A2144" stroke-miterlimit="10" stroke-linecap="round" stroke-linejoin="round"/>
<path d="M238.284 236.826L235.19 236.503" stroke="#0A2144" stroke-miterlimit="10" stroke-linecap="round" stroke-linejoin="round"/>
</g>
</g>
<defs>
<linearGradient id="paint0_linear" x1="188" y1="-2.2289e-08" x2="187.548" y2="384" gradientUnits="userSpaceOnUse">
<stop offset="0.00325103" stop-color="#CEECFF"/>
<stop offset="1" stop-color="white"/>
</linearGradient>
<linearGradient id="paint1_linear" x1="188" y1="-2.2289e-08" x2="187.548" y2="384" gradientUnits="userSpaceOnUse">
<stop offset="0.00325103" stop-color="#CEECFF"/>
<stop offset="1" stop-color="white"/>
</linearGradient>
<clipPath id="clip0">
<rect width="86.5441" height="332.813" fill="white" transform="matrix(0.999464 0.032723 -0.0325618 0.99947 232.156 193.502)"/>
</clipPath>
</defs>
</svg>
